<svg xmlns="http://www.w3.org/2000/svg"
     xmlns:xlink="http://www.w3.org/1999/xlink"
     width="250" height="150">

    <a xlink:href="https://gratipay.com/{{username}}/" target="_blank">
        <rect x="0" y="0" width="250" height="150" rx="3" fill="#396" />

        <g transform="translate(6.5 8.5) scale(0.017)">
            <circle cx="767" cy="640" r="767" fill="#fff" />
            <path d="M 763,1046 413,573 q -16,-22 -24.5,-59 -8.5,-37 6,-85 14.5,-48 61.5,-79 40,-26 83,-25.5 43,0.5 73.5,17.5 30.5,17 54.5,45 36,40 96,40 59,0 95,-40 24,-28 54.5,-45 30.5,-17 73.5,-17.5 43,-0.5 84,25.5 46,31 60.5,79 14.5,48 6,85 -8.5,37 -24.5,59 z" fill="#396" />
        </g>

        <g font-family="sans-serif" font-size="16" fill="#fff">
            <text x="40" y="25">{{username}}</text>
            <text x="240" y="25" text-anchor="end">${{receiving}}/wk</text>
        </g>

        <g fill="#fff" shape-rendering="crispEdges">
        {% set width = 234 / charts.length %}
        {% for chart in charts|reverse %}
            {% set height = chart.receipts / max_received * 107 %}
            <rect x="{{ 6 + loop.index * width }}" y="{{ 142 - height }}" width="{{ width }}" height="{{ height }}" />
        {% endfor %}
        </g>
    </a>
</svg>

